<svg width="19" height="19" viewBox="0 0 19 19" fill="none" xmlns="http://www.w3.org/2000/svg">
<path d="M2.53025 18.75H9.13325C9.44375 18.75 9.69575 18.498 9.69575 18.1875C9.69575 18.0675 9.68825 13.0575 9.6875 12.9375C9.6875 12.627 9.4355 12.375 9.125 12.375H7.4375V10.5H9.125C9.4355 10.5 9.6875 10.248 9.6875 9.9375V7.82475C9.6875 5.99175 11.1792 4.5 13.0122 4.5H14.5625V6.375H13.625C12.9012 6.375 12.3125 6.96375 12.3125 7.6875V9.9375C12.3125 10.248 12.5645 10.5 12.875 10.5H15.155L14.6862 12.375H12.875C12.5645 12.375 12.3125 12.627 12.3125 12.9375V18.1875C12.3125 18.498 12.5645 18.75 12.875 18.75H16.4697C17.5895 18.75 18.5 17.8395 18.5 16.7197V2.78025C18.5 1.6605 17.5895 0.75 16.4697 0.75H2.53025C1.4105 0.75 0.5 1.6605 0.5 2.78025V16.7205C0.5 17.8395 1.4105 18.75 2.53025 18.75ZM1.625 2.78025C1.625 2.28075 2.03075 1.875 2.53025 1.875H16.4705C16.97 1.875 17.3757 2.28075 17.3757 2.78025V16.7205C17.3757 17.22 16.97 17.6257 16.4705 17.6257H13.4375V13.5H15.125C15.383 13.5 15.608 13.3245 15.671 13.074L16.421 10.074C16.5095 9.71925 16.2417 9.375 15.875 9.375H13.4375V7.6875C13.4375 7.5855 13.523 7.5 13.625 7.5H15.125C15.4355 7.5 15.6875 7.248 15.6875 6.9375V3.9375C15.6875 3.627 15.4355 3.375 15.125 3.375H13.0122C10.559 3.375 8.5625 5.3715 8.5625 7.82475V9.375H6.875C6.5645 9.375 6.3125 9.627 6.3125 9.9375V12.9375C6.3125 13.248 6.5645 13.5 6.875 13.5H8.5625V17.625H2.53025C2.03075 17.625 1.625 17.2192 1.625 16.7197V2.78025Z" fill="white"/>
</svg>
