<svg width="19" height="19" viewBox="0 0 19 19" fill="none" xmlns="http://www.w3.org/2000/svg">
<path d="M13.2713 0.75H5.72872C2.84559 0.75 0.5 3.09559 0.5 5.97872V13.5213C0.5 16.4044 2.84559 18.75 5.72872 18.75H13.2713C16.1544 18.75 18.5 16.4044 18.5 13.5213V5.97872C18.5 3.09559 16.1544 0.75 13.2713 0.75ZM17.0937 13.5213C17.0937 15.629 15.379 17.3437 13.2713 17.3437H5.72872C3.621 17.3437 1.90625 15.629 1.90625 13.5213V5.97872C1.90625 3.871 3.621 2.15625 5.72872 2.15625H13.2713C15.379 2.15625 17.0937 3.871 17.0937 5.97872V13.5213Z" fill="white"/>
<path d="M9.5 4.89844C6.82482 4.89844 4.64844 7.07482 4.64844 9.75C4.64844 12.4252 6.82482 14.6016 9.5 14.6016C12.1752 14.6016 14.3516 12.4252 14.3516 9.75C14.3516 7.07482 12.1752 4.89844 9.5 4.89844ZM9.5 13.1953C7.60026 13.1953 6.05469 11.6497 6.05469 9.75C6.05469 7.85026 7.60026 6.30469 9.5 6.30469C11.3997 6.30469 12.9453 7.85026 12.9453 9.75C12.9453 11.6497 11.3997 13.1953 9.5 13.1953Z" fill="white"/>
<path d="M14.4218 5.53125C14.8101 5.53125 15.1249 5.21645 15.1249 4.82812C15.1249 4.4398 14.8101 4.125 14.4218 4.125C14.0334 4.125 13.7186 4.4398 13.7186 4.82812C13.7186 5.21645 14.0334 5.53125 14.4218 5.53125Z" fill="white"/>
</svg>
