<svg width="27" height="31" viewBox="0 0 27 31" fill="none" xmlns="http://www.w3.org/2000/svg">
<path d="M2.43556 16.6653L0.0176637 29.3918C-0.0538333 29.7558 0.0956603 30.1327 0.394648 30.3537C0.563641 30.4837 0.771632 30.5487 0.979624 30.5487C1.13562 30.5487 1.28511 30.5097 1.4281 30.4382L6.86188 27.6239L12.8351 30.4512C13.1016 30.5747 13.4071 30.5747 13.6736 30.4512L19.6403 27.6239L25.0741 30.4382C25.4056 30.6137 25.8086 30.5747 26.1076 30.3537C26.4066 30.1327 26.5496 29.7558 26.4846 29.3918L24.0602 16.6653C24.0082 16.3728 23.8197 16.1258 23.5597 15.9893C22.5457 15.4434 21.5838 15.0144 20.6153 14.6504C21.5513 12.8305 22.2077 10.8805 22.2077 8.95663C22.2077 4.01683 18.1909 0 13.2511 0C8.31132 0 4.29449 4.01683 4.29449 8.95663C4.29449 10.874 4.94446 12.8175 5.87392 14.6309C4.17099 15.2874 2.96854 15.9698 2.91004 16.0023C2.66305 16.1388 2.48756 16.3858 2.43556 16.6653ZM13.2511 1.94992C17.112 1.94992 20.2578 5.09579 20.2578 8.95663C20.2578 13.7794 15.097 19.2262 13.2511 21.0201C11.4052 19.2262 6.2444 13.7794 6.2444 8.95663C6.2444 5.09579 9.39027 1.94992 13.2511 1.94992ZM6.86188 16.3403C9.22778 20.0712 12.3996 22.8985 12.6076 23.087C12.7896 23.2495 13.0236 23.334 13.2511 23.334C13.4786 23.334 13.7126 23.2495 13.8946 23.087C14.1026 22.8985 17.2614 20.0842 19.6273 16.3663C20.4918 16.6718 21.3433 17.0358 22.2337 17.4908L24.1902 27.7863L20.1083 25.6739C19.8353 25.5374 19.5169 25.5244 19.2439 25.6609L13.2511 28.4948L7.25836 25.6544C6.98537 25.5244 6.66039 25.5309 6.3939 25.6674L2.30557 27.7798L4.26199 17.4778C4.76247 17.2243 5.71143 16.7693 6.86188 16.3403Z" fill="black"/>
<path d="M18.711 8.95672C18.711 5.94735 16.2606 3.49695 13.2512 3.49695C10.2418 3.49695 7.79144 5.94735 7.79144 8.95672C7.79144 11.9661 10.2418 14.4165 13.2512 14.4165C16.2606 14.4165 18.711 11.9661 18.711 8.95672ZM9.74136 8.95672C9.74136 7.0198 11.3143 5.44687 13.2512 5.44687C15.1881 5.44687 16.7611 7.0198 16.7611 8.95672C16.7611 10.8936 15.1881 12.4666 13.2512 12.4666C11.3143 12.4666 9.74136 10.8936 9.74136 8.95672Z" fill="black"/>
</svg>
