<svg width="35" height="35" viewBox="0 0 35 35" fill="none" xmlns="http://www.w3.org/2000/svg">
<path d="M6.06326 0.751289C5.18832 0.764044 4.34952 1.11144 3.72989 1.73122C3.72989 1.73122 2.2302 3.23084 1.48 3.9811C0.844656 4.61652 0.497552 5.47915 0.500075 6.3738C0.501845 7.00157 0.574324 8.89937 1.86231 12.1194C3.16045 15.3647 5.68282 19.7101 10.4817 24.5091C15.2806 29.308 19.6261 31.8304 22.8715 33.1285C26.0914 34.4165 27.9893 34.489 28.617 34.4907C29.5117 34.4933 30.3743 34.1463 31.0097 33.5108L33.2596 31.2609C34.7502 29.7704 34.4861 27.2302 32.7367 26.0625L25.9936 21.5605C24.6598 20.6702 22.8659 20.8521 21.7333 21.9846L21.4763 22.2416C20.265 21.6065 18.6829 20.9028 16.3855 18.6053C13.9159 16.1357 13.3625 14.7129 12.7492 13.5145L13.0063 13.2575C14.1387 12.125 14.3206 10.331 13.4303 8.9972L8.92835 2.25414C8.29268 1.30183 7.21124 0.733686 6.06326 0.751289ZM17.2577 0.751289C16.9762 0.786265 16.7183 0.926292 16.5357 1.14333C16.353 1.36037 16.2591 1.6384 16.2727 1.92174C16.2863 2.20509 16.4065 2.47283 16.6091 2.67136C16.8117 2.86989 17.0818 2.98455 17.3654 2.99238C25.4555 2.99238 31.9984 9.53536 31.9984 17.6254C31.9845 17.781 32.0031 17.9378 32.053 18.0858C32.103 18.2339 32.1832 18.3698 32.2886 18.4851C32.3941 18.6004 32.5223 18.6925 32.6653 18.7555C32.8082 18.8185 32.9628 18.8511 33.119 18.8511C33.2752 18.8511 33.4297 18.8185 33.5727 18.7555C33.7156 18.6925 33.8439 18.6004 33.9493 18.4851C34.0547 18.3698 34.135 18.2339 34.1849 18.0858C34.2349 17.9378 34.2535 17.781 34.2395 17.6254C34.2395 8.31944 26.6714 0.751289 17.3654 0.751289C17.3295 0.74957 17.2936 0.74957 17.2577 0.751289ZM6.09622 2.99238C6.4807 2.98813 6.83677 3.17747 7.05198 3.49993L11.5539 10.243C11.8551 10.6941 11.7962 11.2773 11.4111 11.6623L10.4905 12.5851C10.3185 12.7572 10.2069 12.9804 10.1724 13.2212C10.138 13.4621 10.1825 13.7076 10.2994 13.921C10.8166 14.8698 11.775 17.1807 14.7925 20.1983C17.6307 23.0364 20.0814 24.1526 21.0698 24.6915C21.2832 24.8083 21.5287 24.8529 21.7696 24.8184C22.0104 24.7839 22.2336 24.6723 22.4057 24.5003L23.3285 23.5797C23.7135 23.1945 24.2967 23.1357 24.7478 23.4369L31.4909 27.9388C32.1036 28.3479 32.1843 29.1482 31.6667 29.6658L29.4146 31.9157C29.205 32.1253 28.9173 32.2505 28.617 32.2497C28.0954 32.2482 26.683 32.228 23.702 31.0368C20.7464 29.8546 16.6752 27.5123 12.0769 22.914C7.4785 18.3156 5.13624 14.2445 3.954 11.2888C2.76159 8.3078 2.74264 6.89545 2.74117 6.3738C2.74032 6.07363 2.86531 5.7861 3.07514 5.57623C3.82516 4.82614 5.32502 3.32415 5.32502 3.32415C5.53002 3.11922 5.80501 2.99663 6.09622 2.99238ZM17.3654 5.24227C17.0668 5.24227 16.7804 5.3609 16.5692 5.57208C16.358 5.78325 16.2394 6.06966 16.2394 6.36831C16.2394 6.66695 16.358 6.95336 16.5692 7.16454C16.7804 7.37571 17.0668 7.49435 17.3654 7.49435C22.9703 7.49435 27.4965 12.0205 27.4965 17.6254C27.4965 17.9241 27.6151 18.2105 27.8263 18.4216C28.0375 18.6328 28.3239 18.7515 28.6225 18.7515C28.9212 18.7515 29.2076 18.6328 29.4187 18.4216C29.6299 18.2105 29.7486 17.9241 29.7486 17.6254C29.7485 10.8046 24.1862 5.24227 17.3654 5.24227ZM17.3654 9.74423C17.2156 9.74087 17.0665 9.76748 16.9271 9.8225C16.7877 9.87752 16.6607 9.95984 16.5535 10.0646C16.4463 10.1694 16.3612 10.2946 16.303 10.4327C16.2449 10.5709 16.2149 10.7193 16.2149 10.8692C16.2149 11.0191 16.2449 11.1674 16.303 11.3056C16.3612 11.4438 16.4463 11.5689 16.5535 11.6737C16.6607 11.7785 16.7877 11.8608 16.9271 11.9158C17.0665 11.9709 17.2156 11.9975 17.3654 11.9941C20.4852 11.9941 22.9967 14.5056 22.9967 17.6254C23.0032 17.9194 23.1246 18.1992 23.3349 18.4049C23.5451 18.6105 23.8275 18.7257 24.1217 18.7257C24.4158 18.7257 24.6982 18.6105 24.9084 18.4049C25.1187 18.1992 25.2401 17.9194 25.2466 17.6254C25.2466 13.2897 21.7011 9.74423 17.3654 9.74423Z" fill="white"/>
</svg>
