<svg width="31" height="32" viewBox="0 0 31 32" fill="none" xmlns="http://www.w3.org/2000/svg">
<path d="M12.2951 10.022L12.6146 9.71772C13.4057 8.89623 13.2687 8.51591 12.4929 7.74006L8.35504 3.55657C7.12281 2.30912 6.89462 1.71583 5.72324 2.82635L5.40377 3.13061L12.2951 10.022ZM11.4889 10.7065L4.79526 4.01295C3.73037 5.44294 1.23549 9.29176 2.46772 12.1365C3.57825 14.6771 4.1259 14.7988 5.51026 16.7004C8.32461 19.9102 11.8692 23.3483 14.6379 25.9345C16.5547 27.3188 16.6308 27.9578 19.2017 28.977C21.94 30.0571 25.8953 27.6231 27.3862 26.6038L20.6926 19.9102L18.8975 22.3747C18.3802 23.0745 17.0719 22.2834 16.1592 21.3707C14.577 19.7733 11.3215 16.533 10.0741 15.1791C9.17653 14.2815 8.37025 12.9732 9.07004 12.4408L11.4889 10.7065ZM28.2533 25.9953L28.5727 25.6759C29.6072 24.5501 29.0139 24.3067 27.7817 23.0897L23.6134 18.9518C22.8375 18.2064 22.4724 18.0391 21.6814 18.7845L21.3771 19.104L28.2533 25.9953Z" fill="black"/>
</svg>
