<svg width="14" height="13" viewBox="0 0 14 13" fill="none" xmlns="http://www.w3.org/2000/svg">
<path d="M12.9996 9.23561V10.8916C13.0003 11.0453 12.9659 11.1974 12.8986 11.3383C12.8313 11.4792 12.7325 11.6056 12.6087 11.7095C12.4849 11.8134 12.3387 11.8926 12.1795 11.9418C12.0203 11.9911 11.8517 12.0094 11.6843 11.9955C9.82768 11.811 8.04426 11.2306 6.47734 10.3009C5.01953 9.45346 3.78356 8.32273 2.8572 6.98905C1.83752 5.54904 1.20294 3.90954 1.0049 2.20337C0.98982 2.05073 1.00965 1.89689 1.06312 1.75164C1.11659 1.6064 1.20254 1.47293 1.31548 1.35974C1.42843 1.24654 1.5659 1.1561 1.71915 1.09418C1.87239 1.03225 2.03805 1.0002 2.20558 1.00005H4.01565C4.30846 0.997417 4.59233 1.09228 4.81435 1.26695C5.03636 1.44163 5.18138 1.6842 5.22236 1.94946C5.29876 2.4794 5.44044 2.99973 5.64471 3.50053C5.72589 3.6981 5.74346 3.91281 5.69534 4.11923C5.64721 4.32566 5.53542 4.51513 5.3732 4.66521L4.60694 5.36622C5.46585 6.74813 6.71655 7.89234 8.22708 8.67811L8.99334 7.9771C9.15739 7.82869 9.3645 7.72641 9.59013 7.68239C9.81577 7.63837 10.0505 7.65444 10.2664 7.7287C10.8138 7.91558 11.3826 8.0452 11.9619 8.11509C12.2549 8.15292 12.5226 8.28798 12.714 8.49458C12.9053 8.70118 13.007 8.96491 12.9996 9.23561Z" stroke="white" stroke-width="2" stroke-linecap="round" stroke-linejoin="round"/>
</svg>
