<svg width="21" height="18" viewBox="0 0 21 18" fill="none" xmlns="http://www.w3.org/2000/svg">
<path d="M0.849354 8.74082L5.80146 11.2476C5.993 11.3436 6.21913 11.3368 6.40223 11.2279L10.8101 8.62512L8.14209 11.0265C8.00625 11.1491 7.92862 11.3239 7.92862 11.5082V17.3574C7.92862 17.9744 8.70405 18.2341 9.06771 17.7439L11.2084 14.8531L16.5022 17.9153C16.8735 18.1321 17.3494 17.9144 17.4354 17.4833L20.7371 0.771335C20.8358 0.269118 20.3439 -0.14054 19.8866 0.0462913L0.901668 7.5667C0.392028 7.76895 0.359121 8.49314 0.849354 8.74082ZM19.2689 1.67121L16.3672 16.3581L11.351 13.4562C11.0776 13.2976 10.7257 13.3679 10.5317 13.6284L9.19428 15.4342V11.797L16.4094 5.30415C16.9806 4.79079 16.3242 3.87805 15.6719 4.26714L6.06135 9.94237L2.693 8.23775L19.2689 1.67121Z" fill="white"/>
</svg>
