<svg width="29" height="29" viewBox="0 0 29 29" fill="none" xmlns="http://www.w3.org/2000/svg">
<path d="M14.9126 0.460693C7.19745 0.460693 0.941742 6.7164 0.941742 14.4316C0.941742 22.1467 7.19745 28.4024 14.9126 28.4024C22.6278 28.4024 28.8835 22.1467 28.8835 14.4316C28.8835 6.7164 22.6278 0.460693 14.9126 0.460693ZM14.9126 26.0324C8.50722 26.0324 3.3118 20.837 3.3118 14.4316C3.3118 8.02617 8.50722 2.83075 14.9126 2.83075C21.318 2.83075 26.5134 8.02617 26.5134 14.4316C26.5134 20.837 21.318 26.0324 14.9126 26.0324Z" fill="black"/>
<path d="M20.3606 18.3792L15.9136 15.164V7.44577C15.9136 7.30855 15.8014 7.19629 15.6642 7.19629H14.1642C14.027 7.19629 13.9147 7.30855 13.9147 7.44577V16.0341C13.9147 16.1152 13.9521 16.19 14.0176 16.2368L19.1756 19.9977C19.2879 20.0788 19.4438 20.0539 19.5249 19.9447L20.4168 18.7285C20.4978 18.6131 20.4729 18.4572 20.3606 18.3792Z" fill="black"/>
</svg>
