<svg width="46" height="46" viewBox="0 0 46 46" fill="none" xmlns="http://www.w3.org/2000/svg">
<circle cx="23" cy="23" r="23" fill="#16B9ED" fill-opacity="0.5"/>
<path d="M9 23.5283C9 20.8994 9.65094 18.4686 10.9528 16.2358C12.2547 14.0031 14.0189 12.239 16.2453 10.9434C18.4717 9.6478 20.8931 9 23.5094 9C25.4717 9 27.3459 9.38365 29.1321 10.1509C30.9182 10.9182 32.4591 11.9497 33.7547 13.2453C35.0503 14.5409 36.0818 16.0849 36.8491 17.8774C37.6164 19.6698 38 21.5535 38 23.5283C38 25.4906 37.6164 27.3679 36.8491 29.1604C36.0818 30.9528 35.0503 32.4937 33.7547 33.783C32.4591 35.0723 30.9182 36.0975 29.1321 36.8585C27.3459 37.6195 25.4717 38 23.5094 38C21.5346 38 19.6509 37.6164 17.8585 36.8491C16.066 36.0818 14.522 35.0503 13.2264 33.7547C11.9308 32.4591 10.9025 30.9214 10.1415 29.1415C9.3805 27.3616 9 25.4906 9 23.5283ZM12.1887 23.5283C12.1887 26.5849 13.3019 29.239 15.5283 31.4906C17.7547 33.717 20.4151 34.8302 23.5094 34.8302C25.5472 34.8302 27.434 34.3239 29.1698 33.3113C30.9057 32.2987 32.283 30.9245 33.3019 29.1887C34.3208 27.4528 34.8302 25.566 34.8302 23.5283C34.8302 21.4906 34.3208 19.6006 33.3019 17.8585C32.283 16.1164 30.9057 14.739 29.1698 13.7264C27.434 12.7138 25.5472 12.2075 23.5094 12.2075C21.4717 12.2075 19.5849 12.7138 17.8491 13.7264C16.1132 14.739 14.7358 16.1164 13.717 17.8585C12.6981 19.6006 12.1887 21.4906 12.1887 23.5283ZM22.3962 23.5283V14.9434C22.3962 14.6415 22.5 14.3868 22.7075 14.1792C22.9151 13.9717 23.1698 13.8679 23.4717 13.8679C23.7736 13.8679 24.0283 13.9717 24.2358 14.1792C24.4434 14.3868 24.5472 14.6415 24.5472 14.9434V23.2075L27.3208 28.1509C27.4717 28.4277 27.5063 28.7075 27.4245 28.9906C27.3428 29.2736 27.1761 29.4906 26.9245 29.6415C26.7862 29.717 26.6101 29.7547 26.3962 29.7547C25.9686 29.7547 25.6541 29.5786 25.4528 29.2264L22.6226 24.2075C22.4717 24.0189 22.3962 23.7925 22.3962 23.5283Z" fill="#16B9ED"/>
</svg>
