<svg width="46" height="46" viewBox="0 0 46 46" fill="none" xmlns="http://www.w3.org/2000/svg">
<circle cx="23" cy="23" r="23" fill="#16B9ED" fill-opacity="0.5"/>
<path d="M22.5 11.9C28.8945 11.9 34.1 17.1055 34.1 23.5C34.1 29.8945 28.8945 35.1 22.5 35.1C16.1055 35.1 10.9 29.8945 10.9 23.5C10.9 17.1055 16.1055 11.9 22.5 11.9ZM22.5 9C14.496 9 8 15.496 8 23.5C8 31.504 14.496 38 22.5 38C30.504 38 37 31.504 37 23.5C37 15.496 30.504 9 22.5 9ZM21.05 17.7H18.15V29.3H21.05V17.7ZM29.75 23.5L22.5 17.7V29.3L29.75 23.5Z" fill="#16B9ED"/>
</svg>
