<svg width="56" height="42" viewBox="0 0 56 42" fill="none" xmlns="http://www.w3.org/2000/svg">
<path d="M24.5 29.6406C24.5 30.6432 24.2129 31.4954 23.6387 32.1973C23.0645 32.8991 22.3763 33.25 21.5742 33.25H9.92578C9.1237 33.25 8.43555 32.8991 7.86133 32.1973C7.28711 31.4954 7 30.6432 7 29.6406C7 28.6562 7.06836 27.7402 7.20508 26.8926C7.3418 26.0449 7.5651 25.2246 7.875 24.4316C8.1849 23.6387 8.64974 23.0143 9.26953 22.5586C9.88932 22.1029 10.6276 21.875 11.4844 21.875C12.651 23.0417 14.0729 23.625 15.75 23.625C17.4271 23.625 18.849 23.0417 20.0156 21.875C20.8724 21.875 21.6107 22.1029 22.2305 22.5586C22.8503 23.0143 23.3151 23.6387 23.625 24.4316C23.9349 25.2246 24.1582 26.0449 24.2949 26.8926C24.4316 27.7402 24.5 28.6562 24.5 29.6406ZM21 17.5C21 18.9583 20.4896 20.1979 19.4688 21.2188C18.4479 22.2396 17.2083 22.75 15.75 22.75C14.2917 22.75 13.0521 22.2396 12.0312 21.2188C11.0104 20.1979 10.5 18.9583 10.5 17.5C10.5 16.0417 11.0104 14.8021 12.0312 13.7812C13.0521 12.7604 14.2917 12.25 15.75 12.25C17.2083 12.25 18.4479 12.7604 19.4688 13.7812C20.4896 14.8021 21 16.0417 21 17.5ZM49 28.875V30.625C49 30.8802 48.918 31.0898 48.7539 31.2539C48.5898 31.418 48.3802 31.5 48.125 31.5H28.875C28.6198 31.5 28.4102 31.418 28.2461 31.2539C28.082 31.0898 28 30.8802 28 30.625V28.875C28 28.6198 28.082 28.4102 28.2461 28.2461C28.4102 28.082 28.6198 28 28.875 28H48.125C48.3802 28 48.5898 28.082 48.7539 28.2461C48.918 28.4102 49 28.6198 49 28.875ZM38.5 21.875V23.625C38.5 23.8802 38.418 24.0898 38.2539 24.2539C38.0898 24.418 37.8802 24.5 37.625 24.5H28.875C28.6198 24.5 28.4102 24.418 28.2461 24.2539C28.082 24.0898 28 23.8802 28 23.625V21.875C28 21.6198 28.082 21.4102 28.2461 21.2461C28.4102 21.082 28.6198 21 28.875 21H37.625C37.8802 21 38.0898 21.082 38.2539 21.2461C38.418 21.4102 38.5 21.6198 38.5 21.875ZM49 21.875V23.625C49 23.8802 48.918 24.0898 48.7539 24.2539C48.5898 24.418 48.3802 24.5 48.125 24.5H42.875C42.6198 24.5 42.4102 24.418 42.2461 24.2539C42.082 24.0898 42 23.8802 42 23.625V21.875C42 21.6198 42.082 21.4102 42.2461 21.2461C42.4102 21.082 42.6198 21 42.875 21H48.125C48.3802 21 48.5898 21.082 48.7539 21.2461C48.918 21.4102 49 21.6198 49 21.875ZM49 14.875V16.625C49 16.8802 48.918 17.0898 48.7539 17.2539C48.5898 17.418 48.3802 17.5 48.125 17.5H28.875C28.6198 17.5 28.4102 17.418 28.2461 17.2539C28.082 17.0898 28 16.8802 28 16.625V14.875C28 14.6198 28.082 14.4102 28.2461 14.2461C28.4102 14.082 28.6198 14 28.875 14H48.125C48.3802 14 48.5898 14.082 48.7539 14.2461C48.918 14.4102 49 14.6198 49 14.875ZM52.5 37.625V7H3.5V37.625C3.5 37.862 3.58659 38.0671 3.75977 38.2402C3.93294 38.4134 4.13802 38.5 4.375 38.5H51.625C51.862 38.5 52.0671 38.4134 52.2402 38.2402C52.4134 38.0671 52.5 37.862 52.5 37.625ZM56 4.375V37.625C56 38.8281 55.5716 39.8581 54.7148 40.7148C53.8581 41.5716 52.8281 42 51.625 42H4.375C3.17188 42 2.14193 41.5716 1.28516 40.7148C0.428385 39.8581 0 38.8281 0 37.625V4.375C0 3.17188 0.428385 2.14193 1.28516 1.28516C2.14193 0.428385 3.17188 0 4.375 0H51.625C52.8281 0 53.8581 0.428385 54.7148 1.28516C55.5716 2.14193 56 3.17188 56 4.375Z" fill="black"/>
</svg>
