<svg width="63" height="36" viewBox="0 0 63 36" fill="none" xmlns="http://www.w3.org/2000/svg">
<path d="M59.8026 29.6796L48.7274 21.839L47.7295 23.2573L58.8041 31.0984L59.8026 29.6796Z" fill="black"/>
<path d="M59.6764 22.7862L58.6077 21.42L47.9448 29.816L49.0134 31.1816L59.6764 22.7862Z" fill="black"/>
<path d="M16.5804 29.4864L5.50526 21.6458L4.50731 23.064L15.5824 30.9057L16.5804 29.4864Z" fill="black"/>
<path d="M16.4476 22.5932L15.379 21.2281L4.71658 29.6235L5.78521 30.9897L16.4476 22.5932Z" fill="black"/>
<path d="M10.4955 17.0452C15.4488 17.0452 19.4614 21.0705 19.4614 26.0397C19.4614 31.0088 15.4488 35.0342 10.4955 35.0342C5.54212 35.0342 1.52954 31.0088 1.52954 26.0397C1.52954 21.0705 5.54212 17.0452 10.4955 17.0452ZM10.4955 31.9578C13.7544 31.9578 16.3948 29.309 16.3948 26.0397C16.3948 22.7704 13.7544 20.1216 10.4955 20.1216C7.23655 20.1216 4.59615 22.7704 4.59615 26.0397C4.59615 29.309 7.23655 31.9578 10.4955 31.9578Z" fill="black"/>
<path d="M10.4955 29.7001C8.48034 29.7001 6.84675 28.0613 6.84675 26.0398C6.84675 24.0182 8.48034 22.3794 10.4955 22.3794C12.5106 22.3794 14.1442 24.0182 14.1442 26.0398C14.1442 28.0613 12.5106 29.7001 10.4955 29.7001Z" fill="url(#paint0_radial)"/>
<path d="M10.4954 27.7239C9.56825 27.7239 8.81661 26.9698 8.81661 26.0397C8.81661 25.1095 9.56825 24.3555 10.4954 24.3555C11.4226 24.3555 12.1743 25.1095 12.1743 26.0397C12.1743 26.9698 11.4226 27.7239 10.4954 27.7239Z" fill="black"/>
<path d="M46.489 10.4858C46.2707 10.3971 46.0109 9.92264 44.2385 9.18222C42.4609 8.4418 41.5097 8.4418 39.992 9.31258C38.4743 10.1833 27.606 15.5279 26.1767 16.3518C24.7473 17.1756 21.7171 20.3928 20.7607 21.3053V29.6063L46.489 10.4858Z" fill="black"/>
<path d="M19.2795 12.5453C18.8741 12.3941 18.4063 12.2481 18.0321 12.4671C17.767 12.6236 17.6318 12.9208 17.5123 13.2023L16.1245 16.4247C18.9208 17.6605 21.7847 18.7607 24.6902 19.7097C25.0177 19.8192 26.3743 17.5093 26.5406 17.2173C27.0136 16.383 27.3254 15.7208 26.3587 15.1942C24.2172 14.0314 21.5612 13.4005 19.2795 12.5453Z" fill="black"/>
<path d="M53.7241 17.2433C58.6774 17.2433 62.69 21.2687 62.69 26.2378C62.69 31.2069 58.6774 35.2323 53.7241 35.2323C48.7707 35.2323 44.7582 31.2069 44.7582 26.2378C44.7582 21.2687 48.7707 17.2433 53.7241 17.2433ZM53.7241 32.1559C56.983 32.1559 59.6234 29.5071 59.6234 26.2378C59.6234 22.9685 56.983 20.3197 53.7241 20.3197C50.4652 20.3197 47.8248 22.9685 47.8248 26.2378C47.8248 29.5071 50.4652 32.1559 53.7241 32.1559Z" fill="black"/>
<path d="M53.7241 29.893C51.709 29.893 50.0754 28.2542 50.0754 26.2326C50.0754 24.2111 51.709 22.5723 53.7241 22.5723C55.7393 22.5723 57.3729 24.2111 57.3729 26.2326C57.3729 28.2542 55.7393 29.893 53.7241 29.893Z" fill="url(#paint1_radial)"/>
<path d="M53.7241 27.9168C52.7969 27.9168 52.0453 27.1628 52.0453 26.2327C52.0453 25.3025 52.7969 24.5485 53.7241 24.5485C54.6513 24.5485 55.4029 25.3025 55.4029 26.2327C55.4029 27.1628 54.6513 27.9168 53.7241 27.9168Z" fill="black"/>
<path d="M12.7044 23.1719L27.6476 20.2363L27.5852 23.2345L13.2917 26.1023C13.0474 24.9448 12.9851 24.3243 12.7044 23.1719Z" fill="black"/>
<path d="M23.1879 27.0044C21.1765 26.1701 17.3354 24.6319 16.062 24.1262C15.7969 24.0219 15.6046 23.7872 15.5422 23.5057L15.4591 23.1094C15.4019 22.833 15.2096 22.5984 14.9445 22.4941L2.03876 17.2017C1.61255 17.0244 1.12397 17.2226 0.936855 17.6501L0.13122 19.4699C-0.0610924 19.9079 0.141615 20.4189 0.578217 20.6066L13.302 26.0346C13.5463 26.1388 13.827 26.1232 14.0557 25.9929L14.5287 25.7217C14.7522 25.5914 15.0276 25.5757 15.2667 25.6696L22.533 28.5843C22.8293 28.7042 23.1619 28.6469 23.4062 28.4383C23.9 28.0316 23.7753 27.2495 23.1879 27.0044Z" fill="url(#paint2_linear)"/>
<path d="M53.75 26.2691C54.1191 26.1805 54.3426 25.805 54.249 25.44L52.986 20.3145C52.8976 19.9495 52.5286 19.7253 52.1596 19.8139C51.7957 19.9026 51.5722 20.2728 51.6606 20.643L52.9236 25.7685C53.012 26.1335 53.381 26.3577 53.75 26.2691Z" fill="black"/>
<path d="M55.1638 8.82775C54.6856 9.06239 53.932 9.59424 53.3758 10.0792C53.2459 10.3659 53.2667 10.7726 53.433 11.2106C53.6721 11.8259 54.2646 12.5924 55.247 13.0565C55.6368 11.5131 55.6108 10.1209 55.1638 8.82775ZM55.4757 8.1864C56.3852 10.3347 56.0266 12.3421 55.5952 13.7552C53.3342 13.02 52.3259 10.8613 52.96 9.75066C53.407 9.35438 54.8259 8.22812 55.4757 8.1864Z" fill="black"/>
<path d="M47.3986 11.0593C47.5685 11.0597 47.736 11.0183 47.8862 10.9386C48.0365 10.859 48.1649 10.7436 48.2604 10.6026C48.3558 10.4615 48.4153 10.2992 48.4336 10.1297C48.4519 9.96023 48.4285 9.78884 48.3654 9.63056L46.7541 5.56348C46.6761 5.36534 46.4682 4.83871 45.8861 4.6145C45.3456 4.40593 44.7946 4.64578 44.5191 4.80742C44.4931 4.82306 44.462 4.84392 44.436 4.85956L42.1074 6.53332C41.6396 6.86703 41.5305 7.51881 41.8683 7.98809C41.9474 8.09989 42.0478 8.19486 42.1637 8.2675C42.2796 8.34015 42.4087 8.38904 42.5436 8.41134C42.6784 8.43364 42.8163 8.42892 42.9493 8.39744C43.0823 8.36596 43.2078 8.30835 43.3185 8.22794L45.0805 6.9661L46.4423 10.3971C46.5982 10.809 46.988 11.0593 47.3986 11.0593Z" fill="black"/>
<path d="M24.5549 29.601C23.3023 29.601 22.7305 28.0367 23.6869 27.2285C25.9687 25.2993 28.8586 22.713 29.4199 21.5659C30.3711 19.6106 29.29 19.1309 34.3577 15.5279C38.048 12.8999 39.6281 11.8623 40.2102 11.4973C40.3973 11.3773 40.6104 11.3096 40.8287 11.2939C41.7591 11.2366 44.4982 11.0228 46.4837 10.4857C48.911 9.83394 52.4194 6.74713 48.6512 4.40073C44.8829 2.05434 41.2445 1.44427 44.2747 0.578716C46.5825 -0.0834889 52.0296 3.35789 54.7116 6.70541C54.9975 7.06519 55.2366 7.44583 55.4341 7.84211C55.6836 8.3531 55.4809 8.70246 54.9715 9.23952C54.9611 9.24995 54.9455 9.25516 54.9351 9.26559C54.748 9.39073 54.618 9.57844 54.5453 9.79222C54.2594 10.6317 54.2906 11.8623 55.1638 12.6131C55.6004 12.9833 55.7459 13.6142 55.5068 14.1357C55.0131 15.2098 54.2646 16.018 53.3706 16.3152C50.7302 17.186 49.9921 19.7462 49.1709 20.4449C48.3497 21.1383 45.1843 23.662 44.5814 25.268C44.2488 26.1544 44.15 27.3798 44.1292 28.3027C44.1224 28.6513 43.98 28.9833 43.7323 29.2279C43.4846 29.4725 43.1514 29.6101 42.8038 29.6114H24.5549V29.601Z" fill="url(#paint3_linear)"/>
<path d="M5.29772 7.39899C4.25819 6.87757 3.99831 5.9703 3.86837 4.99524C8.07326 5.21945 14.4975 6.71071 14.9549 7.05485C15.6462 7.57627 16.6026 9.5316 18.8532 9.88096C21.1037 10.2303 25.6984 10.6631 25.6984 10.6631C25.6984 10.6631 29.1185 14.6989 27.6476 15.5227L26.1766 16.3466L22.6682 14.6102C22.6682 14.6102 20.4956 14.4747 18.9363 14.9909C16.2751 13.2076 13.905 10.7465 11.5349 8.96325C10.4954 7.92041 7.37677 8.44183 5.29772 7.39899Z" fill="url(#paint4_linear)"/>
<path d="M1.42536 15.9397C1.03553 16.1326 0.510569 16.289 0.203908 15.9814C-0.10795 15.6633 0.0635724 15.1315 0.261083 14.7352C0.952368 13.3326 1.73721 11.9717 2.60522 10.6681C2.93267 10.1832 3.29651 9.67743 3.83706 9.45322C4.6323 9.12472 5.81216 9.50015 6.3995 10.1154C7.10118 10.8506 6.39429 11.565 5.88493 12.2376C4.70506 13.7862 3.17176 15.0689 1.42536 15.9397Z" fill="url(#paint5_linear)"/>
<path d="M1.09803 11.4816L6.29567 11.4399V8.92139L1.09803 9.00482V11.4816Z" fill="url(#paint6_linear)"/>
<path d="M1.09798 11.4817L2.08033 11.4713L2.11671 8.99451L1.09798 9.00494V11.4817Z" fill="black"/>
<path d="M41.9411 8.6606C41.9411 8.6606 40.1635 4.70823 33.7548 5.01065C27.3461 5.31308 25.2203 7.17976 24.9604 10.2666L27.6476 15.5225C27.6476 15.5225 28.5572 17.2588 30.3348 16.3046C31.6602 15.5903 41.9411 8.6606 41.9411 8.6606Z" fill="url(#paint7_linear)"/>
<path d="M3.86834 4.9952C3.99828 5.97026 4.25816 6.87753 5.29769 7.39895C7.37674 8.4418 10.4953 7.92038 11.5349 8.96322C13.905 10.7465 16.2751 13.2076 18.9311 14.9908C18.5309 15.1212 18.1722 15.2933 17.902 15.5227C16.561 16.6542 14.8717 16.6073 13.0526 15.6948C11.2334 14.7823 0.796534 8.65558 0.27677 6.00676C0.0948524 5.09949 1.68013 4.87528 3.86834 4.9952Z" fill="url(#paint8_linear)"/>
<path d="M59.9612 18.307C59.9612 18.307 56.6243 15.4392 52.7728 16.2213C48.9214 17.0035 50.0857 21.3469 52.6845 21.8266C55.2833 22.3063 53.4641 19.3499 55.5016 19.1309C57.5391 18.9119 60.5641 20.3041 59.9612 18.307Z" fill="black"/>
<path d="M47.5596 13.364C48.5835 14.12 45.652 18.8545 40.7039 19.23C35.7557 19.6054 40.5843 16.5968 43.1728 14.1461C45.1167 12.3055 46.4577 12.5506 47.5596 13.364Z" fill="url(#paint9_linear)"/>
<path d="M50.9225 8.4209C51.3487 7.34156 50.8705 5.98587 49.8674 5.41752C49.5919 5.26109 49.2437 5.16202 48.9682 5.32366C48.7499 5.45402 48.6459 5.70952 48.5524 5.94937C48.2249 6.82536 47.8975 7.69613 47.5752 8.57212C47.4505 8.90061 47.3309 9.26039 47.4401 9.5941C47.6584 10.2407 48.8175 9.9956 49.2956 9.86003C50.0129 9.64624 50.647 9.11961 50.9225 8.4209Z" fill="url(#paint10_linear)"/>
<path d="M30.2358 24.8041C28.6025 24.8041 27.2784 23.4758 27.2784 21.8372C27.2784 20.1987 28.6025 18.8704 30.2358 18.8704C31.8692 18.8704 33.1933 20.1987 33.1933 21.8372C33.1933 23.4758 31.8692 24.8041 30.2358 24.8041Z" fill="black"/>
<path d="M30.236 19.1308C28.7495 19.1308 27.5384 20.3457 27.5384 21.837C27.5384 23.3282 28.7495 24.5431 30.236 24.5431C31.7225 24.5431 32.9336 23.3282 32.9336 21.837C32.9336 20.3457 31.7225 19.1308 30.236 19.1308ZM30.236 18.6094C32.0136 18.6094 33.4534 20.0537 33.4534 21.837C33.4534 23.6202 32.0136 25.0646 30.236 25.0646C28.4584 25.0646 27.0187 23.6202 27.0187 21.837C27.0187 20.0537 28.4584 18.6094 30.236 18.6094Z" fill="black"/>
<path d="M30.236 22.8381C30.367 22.8381 30.4968 22.8121 30.6179 22.7618C30.739 22.7114 30.849 22.6376 30.9417 22.5446C31.1289 22.3568 31.234 22.102 31.2339 21.8365C31.2338 21.5709 31.1286 21.3162 30.9413 21.1284C30.7541 20.9407 30.5002 20.8353 30.2354 20.8353C29.9707 20.8354 29.7168 20.941 29.5297 21.1288C29.3425 21.3167 29.2374 21.5714 29.2375 21.837C29.2376 22.1026 29.3428 22.3572 29.53 22.545C29.7173 22.7327 29.9712 22.8382 30.236 22.8381Z" fill="black"/>
<path d="M30.2359 21.0966C29.8305 21.0966 29.4978 21.4303 29.4978 21.837C29.4978 22.2437 29.8305 22.5775 30.2359 22.5775C30.6413 22.5775 30.9739 22.2437 30.9739 21.837C30.9739 21.4303 30.6413 21.0966 30.2359 21.0966ZM30.2359 20.5752C30.9324 20.5752 31.4937 21.1383 31.4937 21.837C31.4937 22.5357 30.9324 23.0989 30.2359 23.0989C29.5394 23.0989 28.978 22.5357 28.978 21.837C28.978 21.1383 29.5394 20.5752 30.2359 20.5752Z" fill="black"/>
<defs>
<radialGradient id="paint0_radial" cx="0" cy="0" r="1" gradientUnits="userSpaceOnUse" gradientTransform="translate(10.4955 26.0398) rotate(180) scale(3.64874 3.66037)">
<stop offset="0.009"/>
<stop offset="0.174"/>
<stop offset="0.381"/>
<stop offset="0.61"/>
<stop offset="0.854"/>
<stop offset="1" stop-color="#757575"/>
</radialGradient>
<radialGradient id="paint1_radial" cx="0" cy="0" r="1" gradientUnits="userSpaceOnUse" gradientTransform="translate(53.7241 26.2326) rotate(180) scale(3.64874 3.66038)">
<stop offset="0.009"/>
<stop offset="0.174"/>
<stop offset="0.381"/>
<stop offset="0.61"/>
<stop offset="0.854"/>
<stop offset="1" stop-color="#757575"/>
</radialGradient>
<linearGradient id="paint2_linear" x1="23.7129" y1="22.8914" x2="0.0584527" y2="22.8914" gradientUnits="userSpaceOnUse">
<stop offset="0.009"/>
<stop offset="0.174"/>
<stop offset="0.381"/>
<stop offset="0.61"/>
<stop offset="0.854"/>
<stop offset="1"/>
</linearGradient>
<linearGradient id="paint3_linear" x1="39.4144" y1="0.533352" x2="39.4144" y2="29.6485" gradientUnits="userSpaceOnUse">
<stop offset="0.009"/>
<stop offset="0.23"/>
<stop offset="0.514"/>
<stop offset="0.778"/>
<stop offset="1"/>
</linearGradient>
<linearGradient id="paint4_linear" x1="15.9414" y1="15.9393" x2="15.9414" y2="8.0784" gradientUnits="userSpaceOnUse">
<stop/>
<stop offset="0.589"/>
</linearGradient>
<linearGradient id="paint5_linear" x1="6.07204" y1="8.99333" x2="0.722643" y2="16.1465" gradientUnits="userSpaceOnUse">
<stop offset="0.008"/>
<stop offset="0.182"/>
<stop offset="0.442"/>
<stop offset="0.754"/>
<stop offset="1" stop-color="#616161"/>
</linearGradient>
<linearGradient id="paint6_linear" x1="6.29567" y1="10.2015" x2="1.09803" y2="10.2015" gradientUnits="userSpaceOnUse">
<stop offset="0.009"/>
<stop offset="0.174"/>
<stop offset="0.381"/>
<stop offset="0.61"/>
<stop offset="0.854"/>
<stop offset="1"/>
</linearGradient>
<linearGradient id="paint7_linear" x1="33.4508" y1="5.226" x2="33.4508" y2="16.3615" gradientUnits="userSpaceOnUse">
<stop offset="0.009"/>
<stop offset="0.23"/>
<stop offset="0.514"/>
<stop offset="0.778"/>
<stop offset="1"/>
</linearGradient>
<linearGradient id="paint8_linear" x1="9.59665" y1="6.44319" x2="9.59665" y2="15.1441" gradientUnits="userSpaceOnUse">
<stop offset="0.009"/>
<stop offset="0.23"/>
<stop offset="0.514"/>
<stop offset="0.778"/>
<stop offset="1"/>
</linearGradient>
<linearGradient id="paint9_linear" x1="43.1629" y1="12.548" x2="43.1629" y2="19.5908" gradientUnits="userSpaceOnUse">
<stop offset="0.008" stop-color="#616161"/>
<stop offset="0.208" stop-color="#4C4C4C"/>
<stop offset="0.5" stop-color="#343434"/>
<stop offset="0.771" stop-color="#262626"/>
<stop offset="1" stop-color="#212121"/>
</linearGradient>
<linearGradient id="paint10_linear" x1="49.33" y1="5.68553" x2="49.1615" y2="10.7209" gradientUnits="userSpaceOnUse">
<stop offset="0.008" stop-color="#616161"/>
<stop offset="1" stop-color="#212121"/>
</linearGradient>
</defs>
</svg>
