<svg width="46" height="46" viewBox="0 0 46 46" fill="none" xmlns="http://www.w3.org/2000/svg">
<path d="M16.0992 29.7091V31.05C16.0992 33.795 17.1896 36.4276 19.1305 38.3686C21.0714 40.3096 23.7038 41.4 26.4487 41.4C29.1935 41.4 31.8259 40.3096 33.7669 38.3686C35.7078 36.4276 36.7981 33.795 36.7981 31.05V27.209C35.263 26.6664 33.9691 25.5985 33.1451 24.1941C32.3211 22.7897 32.0202 21.1392 32.2954 19.5344C32.5706 17.9295 33.4044 16.4736 34.6492 15.4241C35.894 14.3745 37.4698 13.7989 39.098 13.7989C40.7262 13.7989 42.302 14.3745 43.5469 15.4241C44.7917 16.4736 45.6254 17.9295 45.9007 19.5344C46.1759 21.1392 45.8749 22.7897 45.051 24.1941C44.227 25.5985 42.9331 26.6664 41.3979 27.209V31.05C41.3979 35.015 39.8229 38.8176 37.0194 41.6212C34.2159 44.4249 30.4135 46 26.4487 46C22.4839 46 18.6815 44.4249 15.878 41.6212C13.0744 38.8176 11.4994 35.015 11.4994 31.05V29.7091C8.28402 29.1646 5.3652 27.4993 3.26031 25.0083C1.15543 22.5172 0.000418301 19.3613 0 16.1V4.6C0 3.38 0.484617 2.20998 1.34724 1.34731C2.20986 0.484641 3.37983 0 4.59977 0H6.89965C7.50962 0 8.0946 0.242321 8.52592 0.673654C8.95723 1.10499 9.19954 1.69 9.19954 2.3C9.19954 2.91 8.95723 3.49501 8.52592 3.92635C8.0946 4.35768 7.50962 4.6 6.89965 4.6H4.59977V16.1C4.59977 18.54 5.569 20.88 7.29425 22.6054C9.0195 24.3307 11.3594 25.3 13.7993 25.3C16.2392 25.3 18.5791 24.3307 20.3044 22.6054C22.0296 20.88 22.9988 18.54 22.9988 16.1V4.6H20.699C20.089 4.6 19.504 4.35768 19.0727 3.92635C18.6414 3.49501 18.3991 2.91 18.3991 2.3C18.3991 1.69 18.6414 1.10499 19.0727 0.673654C19.504 0.242321 20.089 0 20.699 0H22.9988C24.2188 0 25.3887 0.484641 26.2514 1.34731C27.114 2.20998 27.5986 3.38 27.5986 4.6V16.1C27.5982 19.3613 26.4432 22.5172 24.3383 25.0083C22.2334 27.4993 19.3146 29.1646 16.0992 29.7091ZM39.098 23C39.708 23 40.293 22.7577 40.7243 22.3263C41.1556 21.895 41.3979 21.31 41.3979 20.7C41.3979 20.09 41.1556 19.505 40.7243 19.0737C40.293 18.6423 39.708 18.4 39.098 18.4C38.4881 18.4 37.9031 18.6423 37.4718 19.0737C37.0405 19.505 36.7981 20.09 36.7981 20.7C36.7981 21.31 37.0405 21.895 37.4718 22.3263C37.9031 22.7577 38.4881 23 39.098 23Z" fill="black"/>
</svg>
