<svg width="74" height="40" viewBox="0 0 74 40" fill="none" xmlns="http://www.w3.org/2000/svg">
<path d="M50.2069 0H16.979L0.36499 20V30H7.01058C7.01058 32.6522 8.06082 35.1957 9.93026 37.0711C11.7997 38.9464 14.3352 40 16.979 40C19.6228 40 22.1583 38.9464 24.0277 37.0711C25.8971 35.1957 26.9474 32.6522 26.9474 30H46.8841C46.8841 32.6522 47.9344 35.1957 49.8038 37.0711C51.6733 38.9464 54.2088 40 56.8525 40C59.4963 40 62.0318 38.9464 63.9013 37.0711C65.7707 35.1957 66.8209 32.6522 66.8209 30H73.4665V20C73.4665 16.3 70.5092 13.3333 66.8209 13.3333H60.1753L50.2069 0ZM18.6404 5H31.9316V13.3333H11.9948L18.6404 5ZM36.9158 5H48.5455L55.0582 13.3333H36.9158V5ZM16.979 25C18.3009 25 19.5686 25.5268 20.5033 26.4645C21.4381 27.4021 21.9632 28.6739 21.9632 30C21.9632 31.3261 21.4381 32.5978 20.5033 33.5355C19.5686 34.4732 18.3009 35 16.979 35C15.6571 35 14.3893 34.4732 13.4546 33.5355C12.5199 32.5978 11.9948 31.3261 11.9948 30C11.9948 28.6739 12.5199 27.4021 13.4546 26.4645C14.3893 25.5268 15.6571 25 16.979 25ZM56.8525 25C58.1744 25 59.4422 25.5268 60.3769 26.4645C61.3116 27.4021 61.8367 28.6739 61.8367 30C61.8367 31.3261 61.3116 32.5978 60.3769 33.5355C59.4422 34.4732 58.1744 35 56.8525 35C55.5306 35 54.2629 34.4732 53.3282 33.5355C52.3935 32.5978 51.8683 31.3261 51.8683 30C51.8683 28.6739 52.3935 27.4021 53.3282 26.4645C54.2629 25.5268 55.5306 25 56.8525 25Z" fill="black"/>
</svg>
