<svg width="121" height="40" viewBox="0 0 121 40" fill="none" xmlns="http://www.w3.org/2000/svg">
<path d="M96.7577 0H63.5297L46.9158 20V30H53.5613C53.5613 32.6522 54.6116 35.1957 56.481 37.0711C58.3505 38.9464 60.886 40 63.5297 40C66.1735 40 68.709 38.9464 70.5785 37.0711C72.4479 35.1957 73.4981 32.6522 73.4981 30H93.4349C93.4349 32.6522 94.4851 35.1957 96.3546 37.0711C98.224 38.9464 100.76 40 103.403 40C106.047 40 108.583 38.9464 110.452 37.0711C112.321 35.1957 113.372 32.6522 113.372 30H120.017V20C120.017 16.3 117.06 13.3333 113.372 13.3333H106.726L96.7577 0ZM65.1911 5H78.4823V13.3333H58.5455L65.1911 5ZM83.4665 5H95.0963L101.609 13.3333H83.4665V5ZM63.5297 25C64.8516 25 66.1194 25.5268 67.0541 26.4645C67.9888 27.4021 68.5139 28.6739 68.5139 30C68.5139 31.3261 67.9888 32.5978 67.0541 33.5355C66.1194 34.4732 64.8516 35 63.5297 35C62.2078 35 60.9401 34.4732 60.0054 33.5355C59.0707 32.5978 58.5455 31.3261 58.5455 30C58.5455 28.6739 59.0707 27.4021 60.0054 26.4645C60.9401 25.5268 62.2078 25 63.5297 25ZM103.403 25C104.725 25 105.993 25.5268 106.928 26.4645C107.862 27.4021 108.387 28.6739 108.387 30C108.387 31.3261 107.862 32.5978 106.928 33.5355C105.993 34.4732 104.725 35 103.403 35C102.081 35 100.814 34.4732 99.8789 33.5355C98.9442 32.5978 98.4191 31.3261 98.4191 30C98.4191 28.6739 98.9442 27.4021 99.8789 26.4645C100.814 25.5268 102.081 25 103.403 25Z" fill="black"/>
<path d="M47 26.7214V30L38.3152 30.5H19H0V17.9714V12H2.5V17.9714H35.5V12H38.3152V17.9714V26.7214H47Z" fill="black"/>
<circle cx="19" cy="31" r="9" fill="black"/>
<circle cx="19" cy="31" r="5" fill="white"/>
</svg>
