<svg width="71" height="48" viewBox="0 0 71 48" fill="none" xmlns="http://www.w3.org/2000/svg">
<path d="M68.3981 21.9964L61.9908 15.7286C60.6765 14.4429 58.8912 13.725 57.0292 13.725H52.922V3.42857C52.922 1.53214 51.3557 0 49.4171 0H3.85381C1.91518 0 0.348938 1.53214 0.348938 3.42857V39.4286C0.348938 44.1643 4.27001 48 9.11111 48C11.9917 48 14.5217 46.6179 16.1208 44.5286C17.7199 46.6286 20.25 48 23.1306 48C27.9717 48 31.8927 44.1643 31.8927 39.4286C31.8927 38.8393 31.827 38.2714 31.7175 37.7143H49.5923C49.4719 38.2714 49.4171 38.8393 49.4171 39.4286C49.4171 44.1643 53.3382 48 58.1793 48C63.0204 48 66.9414 44.1643 66.9414 39.4286C66.9414 38.8393 66.8757 38.2714 66.7662 37.7143H68.6939C69.6577 37.7143 70.4463 36.9429 70.4463 36V26.8393C70.4463 25.0179 69.7125 23.2821 68.3981 21.9964ZM9.11111 42.8571C7.18343 42.8571 5.60624 41.3143 5.60624 39.4286C5.60624 37.5429 7.18343 36 9.11111 36C11.0388 36 12.616 37.5429 12.616 39.4286C12.616 41.3143 11.0388 42.8571 9.11111 42.8571ZM23.1306 42.8571C21.2029 42.8571 19.6257 41.3143 19.6257 39.4286C19.6257 37.5429 21.2029 36 23.1306 36C25.0583 36 26.6354 37.5429 26.6354 39.4286C26.6354 41.3143 25.0583 42.8571 23.1306 42.8571ZM52.922 18.8571H57.0292C57.5002 18.8571 57.9383 19.0393 58.2669 19.3607L63.0094 24H52.922V18.8571ZM58.1793 42.8571C56.2516 42.8571 54.6744 41.3143 54.6744 39.4286C54.6744 37.5429 56.2516 36 58.1793 36C60.1069 36 61.6841 37.5429 61.6841 39.4286C61.6841 41.3143 60.1069 42.8571 58.1793 42.8571Z" fill="black"/>
</svg>
