<svg width="79" height="42" viewBox="0 0 79 42" fill="none" xmlns="http://www.w3.org/2000/svg">
<path d="M7.42658 0C3.48565 0 0.325806 3.115 0.325806 7V31.5H7.42658C7.42658 34.2848 8.54875 36.9555 10.5462 38.9246C12.5437 40.8938 15.2529 42 18.0777 42C20.9026 42 23.6118 40.8938 25.6092 38.9246C27.6067 36.9555 28.7289 34.2848 28.7289 31.5H50.0312C50.0312 34.2848 51.1534 36.9555 53.1509 38.9246C55.1483 40.8938 57.8575 42 60.6824 42C63.5072 42 66.2164 40.8938 68.2139 38.9246C70.2113 36.9555 71.3335 34.2848 71.3335 31.5H78.4343V7C78.4343 3.115 75.2744 0 71.3335 0H7.42658ZM5.65138 5.25H19.8529V14H5.65138V5.25ZM25.1785 5.25H39.38V14H25.1785V5.25ZM44.7056 5.25H58.9072V14H44.7056V5.25ZM64.2327 5.25H73.1087V24.5L64.2327 17.5V5.25ZM18.0777 26.25C19.4902 26.25 20.8447 26.8031 21.8435 27.7877C22.8422 28.7723 23.4033 30.1076 23.4033 31.5C23.4033 32.8924 22.8422 34.2277 21.8435 35.2123C20.8447 36.1969 19.4902 36.75 18.0777 36.75C16.6653 36.75 15.3107 36.1969 14.312 35.2123C13.3132 34.2277 12.7522 32.8924 12.7522 31.5C12.7522 30.1076 13.3132 28.7723 14.312 27.7877C15.3107 26.8031 16.6653 26.25 18.0777 26.25ZM60.6824 26.25C62.0948 26.25 63.4494 26.8031 64.4481 27.7877C65.4469 28.7723 66.0079 30.1076 66.0079 31.5C66.0079 32.8924 65.4469 34.2277 64.4481 35.2123C63.4494 36.1969 62.0948 36.75 60.6824 36.75C59.2699 36.75 57.9154 36.1969 56.9166 35.2123C55.9179 34.2277 55.3568 32.8924 55.3568 31.5C55.3568 30.1076 55.9179 28.7723 56.9166 27.7877C57.9154 26.8031 59.2699 26.25 60.6824 26.25Z" fill="black"/>
</svg>
