<svg width="140" height="34" viewBox="0 0 140 34" fill="none" xmlns="http://www.w3.org/2000/svg">
<path d="M103.926 6.01233L116.12 7.42367L119.196 10.3045L119.674 10.6683C119.674 10.6683 124.998 10.6683 126.656 12.4434L128.369 17.0411C128.369 17.0411 134.817 17.1575 138.484 18.8744L138.779 25.9893C138.779 25.9893 139.425 25.8001 139.664 26.1057C139.903 26.4112 140.31 27.3279 139.608 27.6334C138.891 27.9389 139.13 29.1029 138.428 29.1611C137.711 29.2193 137.416 29.3503 137.416 28.4191L129.788 28.3609L126.894 27.6188L107.846 26.7022L105.949 26.8186L106.005 24.0541H103.997L103.926 6.01233Z" fill="black"/>
<path d="M120.284 17.5276C120.284 17.785 120.6 17.8304 121.56 17.7395C122.521 17.6487 122.876 17.8909 123.165 18.4209C123.455 18.9508 125.191 18.9811 125.284 18.7842C125.731 17.8607 124.744 15.4533 124.56 14.8477C124.376 14.2572 124.007 13.7424 123.705 13.7424C123.415 13.7424 121.192 13.7576 120.903 13.7576C120.613 13.7576 120.311 13.8484 120.258 14.3935C120.219 14.9537 120.284 17.2702 120.284 17.5276Z" fill="white"/>
<path d="M127.976 17.1765L126.123 12.8861C124.505 12.7761 126.061 16.0764 126.357 16.6539C126.668 17.2315 127.976 17.1765 127.976 17.1765Z" fill="white"/>
<path d="M107.362 10.3068H114.233V12.0246H107.362V10.3068Z" fill="white"/>
<path d="M5.34058e-05 0L101.35 0V23.1902L5.34058e-05 23.1902V0Z" fill="black"/>
<path d="M67.8528 24.908L128.834 24.908V28.3435L67.8528 28.3435V24.908Z" fill="black"/>
<path d="M129.693 29.2025C129.693 31.5749 131.615 33.4969 133.988 33.4969C136.36 33.4969 138.282 31.5749 138.282 29.2025C138.282 26.83 136.36 24.908 133.988 24.908C131.615 24.893 129.693 26.83 129.693 29.2025Z" fill="black"/>
<path d="M91.0429 29.2025C91.0429 31.5749 92.9649 33.4969 95.3373 33.4969C97.7098 33.4969 99.6318 31.5749 99.6318 29.2025C99.6318 26.83 97.7098 24.908 95.3373 24.908C92.9799 24.893 91.0429 26.83 91.0429 29.2025Z" fill="black"/>
<path d="M79.8773 29.2025C79.8773 31.5749 81.7993 33.4969 84.1718 33.4969C86.5443 33.4969 88.4663 31.5749 88.4663 29.2025C88.4663 26.83 86.5443 24.908 84.1718 24.908C81.8143 24.893 79.8773 26.83 79.8773 29.2025Z" fill="black"/>
<path d="M89.3252 28.3436C89.3252 25.9711 87.019 24.0491 84.1718 24.0491C81.3247 24.0491 79.0184 25.9711 79.0184 28.3436H89.3252Z" fill="black"/>
<path d="M100.491 28.3436C100.491 25.9711 98.1845 24.0491 95.3373 24.0491C92.4902 24.0491 90.184 25.9711 90.184 28.3436H100.491Z" fill="black"/>
<path d="M67.8528 28.3436C67.8528 25.9711 70.159 24.0491 73.0062 24.0491C75.8533 24.0491 78.1595 25.9711 78.1595 28.3436H67.8528Z" fill="black"/>
<path d="M68.7116 29.2025C68.7116 31.5749 70.4415 33.4969 72.5767 33.4969C74.7119 33.4969 76.4417 31.5749 76.4417 29.2025C76.4417 26.83 74.7119 24.908 72.5767 24.908C70.4415 24.893 68.7116 26.83 68.7116 29.2025Z" fill="black"/>
<path d="M32.638 29.2023C32.638 31.5748 34.3678 33.4968 36.503 33.4968C38.6383 33.4968 40.3681 31.5748 40.3681 29.2023C40.3681 26.8298 38.6383 24.9078 36.503 24.9078C34.3678 24.9078 32.638 26.8298 32.638 29.2023Z" fill="black"/>
<path d="M22.3313 29.2025C22.3313 31.5749 24.2533 33.4969 26.6258 33.4969C28.9982 33.4969 30.9202 31.5749 30.9202 29.2025C30.9202 26.83 28.9982 24.908 26.6258 24.908C24.2533 24.893 22.3313 26.83 22.3313 29.2025Z" fill="black"/>
<path d="M12.8834 29.2025C12.8834 31.5749 14.8054 33.4969 17.1779 33.4969C19.5504 33.4969 21.4724 31.5749 21.4724 29.2025C21.4724 26.83 19.5504 24.908 17.1779 24.908C14.8205 24.893 12.8834 26.83 12.8834 29.2025Z" fill="black"/>
<path d="M1.7177 22.3313L60.9815 22.3313L57.1127 27.4461L12.0058 27.4461C11.5472 28.0819 11.2607 28.8477 11.2607 29.7001C11.2607 29.9024 11.103 30.0614 10.9024 30.0614C10.7018 30.0614 10.5442 29.9024 10.5442 29.7001C10.5442 28.8766 10.7591 28.1108 11.146 27.4461H1.7177V22.3313Z" fill="black"/>
<path d="M123.681 13.7424H124.54V17.178H123.681V13.7424Z" fill="black"/>
<path d="M119.386 6.23061V24.6852C119.386 24.804 119.302 24.908 119.205 24.908H118.709C118.612 24.908 118.528 24.804 118.528 24.6852V7.03298C118.528 6.98841 118.54 6.92897 118.564 6.89925L119.06 6.09688C119.169 5.93344 119.386 6.02259 119.386 6.23061ZM119.229 8.99434C119.29 8.99434 119.338 8.9349 119.338 8.86061C119.338 8.78632 119.29 8.72688 119.229 8.72688C119.169 8.72688 119.12 8.78632 119.12 8.86061C119.12 8.9349 119.169 8.99434 119.229 8.99434ZM119.229 8.54857C119.29 8.54857 119.338 8.48914 119.338 8.41485C119.338 8.34055 119.29 8.28112 119.229 8.28112C119.169 8.28112 119.12 8.34055 119.12 8.41485C119.12 8.48914 119.169 8.54857 119.229 8.54857ZM119.229 8.10281C119.29 8.10281 119.338 8.04338 119.338 7.96909C119.338 7.89479 119.29 7.83536 119.229 7.83536C119.169 7.83536 119.12 7.89479 119.12 7.96909C119.12 8.04338 119.169 8.10281 119.229 8.10281ZM119.229 7.65705C119.29 7.65705 119.338 7.59762 119.338 7.52332C119.338 7.44903 119.29 7.3896 119.229 7.3896C119.169 7.3896 119.12 7.44903 119.12 7.52332C119.12 7.59762 119.169 7.65705 119.229 7.65705ZM119.229 7.21129C119.29 7.21129 119.338 7.15186 119.338 7.07756C119.338 7.00327 119.29 6.94383 119.229 6.94383C119.169 6.94383 119.12 7.00327 119.12 7.07756C119.12 7.15186 119.169 7.21129 119.229 7.21129ZM118.951 8.78632C119.011 8.78632 119.06 8.72688 119.06 8.65259C119.06 8.57829 119.011 8.51886 118.951 8.51886C118.89 8.51886 118.842 8.57829 118.842 8.65259C118.842 8.72688 118.89 8.78632 118.951 8.78632ZM118.951 8.34055C119.011 8.34055 119.06 8.28112 119.06 8.20683C119.06 8.13253 119.011 8.07309 118.951 8.07309C118.89 8.07309 118.842 8.13253 118.842 8.20683C118.842 8.28112 118.89 8.34055 118.951 8.34055ZM118.951 7.89479C119.011 7.89479 119.06 7.83536 119.06 7.76106C119.06 7.68677 119.011 7.62733 118.951 7.62733C118.89 7.62733 118.842 7.68677 118.842 7.76106C118.842 7.83536 118.89 7.89479 118.951 7.89479ZM118.951 7.44903C119.011 7.44903 119.06 7.3896 119.06 7.3153C119.06 7.24101 119.011 7.18157 118.951 7.18157C118.89 7.18157 118.842 7.24101 118.842 7.3153C118.842 7.3896 118.89 7.44903 118.951 7.44903ZM118.697 8.99434C118.757 8.99434 118.806 8.9349 118.806 8.86061C118.806 8.78632 118.757 8.72688 118.697 8.72688C118.636 8.72688 118.588 8.78632 118.588 8.86061C118.588 8.9349 118.636 8.99434 118.697 8.99434ZM118.697 8.54857C118.757 8.54857 118.806 8.48914 118.806 8.41485C118.806 8.34055 118.757 8.28112 118.697 8.28112C118.636 8.28112 118.588 8.34055 118.588 8.41485C118.588 8.48914 118.636 8.54857 118.697 8.54857ZM118.697 8.10281C118.757 8.10281 118.806 8.04338 118.806 7.96909C118.806 7.89479 118.757 7.83536 118.697 7.83536C118.636 7.83536 118.588 7.89479 118.588 7.96909C118.588 8.04338 118.636 8.10281 118.697 8.10281ZM118.697 7.65705C118.757 7.65705 118.806 7.59762 118.806 7.52332C118.806 7.44903 118.757 7.3896 118.697 7.3896C118.636 7.3896 118.588 7.44903 118.588 7.52332C118.588 7.59762 118.636 7.65705 118.697 7.65705ZM118.697 7.21129C118.757 7.21129 118.806 7.15186 118.806 7.07756C118.806 7.00327 118.757 6.94383 118.697 6.94383C118.636 6.94383 118.588 7.00327 118.588 7.07756C118.588 7.15186 118.636 7.21129 118.697 7.21129Z" fill="black"/>
<path d="M84.1718 20.6135H89.3251V25.7669H84.1718V20.6135Z" fill="black"/>
<path d="M17.178 24.908H37.7915V29.2024H17.178V24.908Z" fill="black"/>
<path d="M117.669 26.6257H125.399V30.0613H117.669V26.6257Z" fill="black"/>
<path d="M128.834 26.6257H129.693V30.0613H128.834V26.6257Z" fill="black"/>
<path d="M103.926 26.6257H116.81V30.0613H103.926V26.6257Z" fill="black"/>
</svg>
